<svg xmlns="http://www.w3.org/2000/svg" viewBox="0 0 32 32">
  <circle cx="16" cy="16" r="14" fill="#F59E0B" />
  <path d="M16 4L16 8M16 24L16 28M4 16L8 16M24 16L28 16M7.5 7.5L10.3 10.3M21.7 21.7L24.5 24.5M7.5 24.5L10.3 21.7M21.7 10.3L24.5 7.5" stroke="#FFF" stroke-width="2" stroke-linecap="round" />
  <path d="M16 22C19.3137 22 22 19.3137 22 16C22 12.6863 19.3137 10 16 10C12.6863 10 10 12.6863 10 16C10 19.3137 12.6863 22 16 22Z" fill="#FFF" fill-opacity="0.9" />
  <path d="M16 16L20 12M16 16L20 20M16 16L12 20M16 16L12 12" stroke="#F59E0B" stroke-width="2" stroke-linecap="round"/>
</svg>
